<svg preserveAspectRatio="none" width="100%" height="100%" overflow="visible" style="display: block;" viewBox="0 0 124.774 126.077" fill="none" xmlns="http://www.w3.org/2000/svg">
<path id="Vector" d="M74.1835 0.395736C86.7298 0.523387 99.3733 -0.351935 111.914 0.164748C113.792 0.24377 121.554 0.480837 122.794 0.857711C123.159 0.967127 123.761 1.82421 123.834 2.12814C124.326 4.23135 124.253 12.3949 124.296 15.0878C124.806 44.7211 125.049 76.4697 124.296 106.054C124.18 110.595 123.864 115.16 123.834 119.713L122.563 120.752C84.2254 118.753 45.8267 122.357 7.75632 126.077C6.24275 125.044 0.230988 121.366 0 119.713C4.12739 81.132 3.11833 42.0222 1.62299 3.28916L2.20046 2.71169L57.5159 0.857711C63.0718 0.705746 68.6277 0.547701 74.1835 0.395736Z" fill="var(--fill-0, #010202)"/>
</svg>
