<svg preserveAspectRatio="none" width="100%" height="100%" overflow="visible" style="display: block;" viewBox="0 0 116.824 99.1367" fill="none" xmlns="http://www.w3.org/2000/svg">
<g id="Group">
<path id="Vector" d="M103.765 88.0203C103.972 88.0203 104.263 87.9473 104.342 88.1357C101.88 89.5278 100.215 94.2934 97.1696 92.5306C98.9202 90.5429 100.957 87.9838 103.765 88.0142V88.0203Z" fill="var(--fill-0, white)"/>
<path id="Vector_2" d="M114.178 87.0963L111.746 90.2207C112.287 93.9712 110.603 93.1628 107.351 92.9987L114.178 87.0963Z" fill="var(--fill-0, white)"/>
<path id="Vector_3" d="M73.9067 89.6372C74.241 89.6068 75.396 89.4305 75.4142 89.9837C73.2137 92.561 73.9493 94.0746 69.8583 92.9926C70.8127 91.7343 72.3384 89.7709 73.9067 89.6372Z" fill="var(--fill-0, white)"/>
<path id="Vector_4" d="M53.0753 91.0292C53.282 91.0292 53.5737 90.9562 53.6528 91.1447C50.9478 92.6461 51.0633 96.2386 47.4039 95.0775C49.1485 93.1992 50.267 90.9927 53.0753 91.0292Z" fill="var(--fill-0, white)"/>
<path id="Vector_5" d="M63.026 90.3362C63.3117 90.2694 65.1232 90.2937 65.2265 90.4517C62.6127 91.71 61.7981 95.3572 58.5157 94.1536C59.4396 93.3573 61.9927 90.5672 63.0321 90.3362H63.026Z" fill="var(--fill-0, white)"/>
<path id="Vector_6" d="M42.4256 91.9531C42.6323 91.9531 42.9241 91.8802 43.0031 92.0686C42.0001 92.7859 37.7147 97.7096 36.5233 96.2325C38.0125 94.415 39.9395 91.9227 42.4256 91.9531Z" fill="var(--fill-0, white)"/>
<path id="Vector_7" d="M47.7504 91.4912C47.9571 91.4912 48.2489 91.4182 48.3279 91.6067C46.3037 93.0291 44.9786 96.7127 42.0791 95.5395C43.9391 93.9956 45.1062 91.4608 47.7504 91.4912Z" fill="var(--fill-0, white)"/>
<path id="Vector_8" d="M112.561 85.2423L108.166 89.4062C107.515 89.4609 103.546 93.8253 102.956 92.9926C102.367 92.1598 111.673 85.7286 112.561 85.2363V85.2423Z" fill="var(--fill-0, white)"/>
<path id="Vector_9" d="M97.747 88.4822L97.978 88.9442C96.1301 90.2997 94.9326 93.3998 92.3067 92.7616C92.9328 92.3179 95.4189 88.8166 95.6621 88.7132C96.1484 88.5066 97.2425 89.0293 97.747 88.4822Z" fill="var(--fill-0, white)"/>
<path id="Vector_10" d="M91.4983 88.9442C91.7657 88.926 92.3979 88.8713 92.5377 89.0597C90.1853 90.5125 89.3586 93.8497 86.2889 92.7616C87.4864 91.5823 89.7355 89.0779 91.4983 88.9442Z" fill="var(--fill-0, white)"/>
<path id="Vector_11" d="M57.4701 90.7982C57.7315 90.7313 59.3362 90.7556 59.4396 90.9137C57.2391 92.0747 56.3395 95.5274 53.4217 94.6156C53.2454 94.3967 57.154 90.8772 57.4701 90.7982Z" fill="var(--fill-0, white)"/>
<path id="Vector_12" d="M68.3509 90.1052C68.588 90.0444 69.7307 90.0566 69.8584 90.2207C67.8646 91.7829 66.8009 94.8465 63.8406 93.6916C63.8406 93.4059 68.0713 90.1721 68.357 90.1052H68.3509Z" fill="var(--fill-0, white)"/>
<path id="Vector_13" d="M80.1556 89.4062C80.5507 89.4244 80.7087 89.3819 80.964 89.7527C79.0371 90.5368 78.2955 94.2812 76.1011 92.7616C77.2986 91.5459 78.1982 89.3029 80.1495 89.4062H80.1556Z" fill="var(--fill-0, white)"/>
<path id="Vector_14" d="M32.0129 93.1141C32.2195 93.1141 32.5052 93.0412 32.5903 93.2296C30.7424 94.5122 29.5328 97.8494 27.0345 96.9315C28.232 95.9529 30.5601 93.0898 32.0129 93.1141Z" fill="var(--fill-0, white)"/>
<path id="Vector_15" d="M37.1006 92.4151C37.3073 92.4151 37.593 92.3422 37.6781 92.5306C36.7967 92.8528 32.7605 97.8373 32.1222 96.6945C31.7454 96.0258 35.818 92.3969 37.1006 92.4151Z" fill="var(--fill-0, white)"/>
<path id="Vector_16" d="M22.287 94.2691C22.0742 95.4119 18.3967 98.9861 17.5396 97.8555C18.9863 96.4939 20.3297 94.804 22.287 94.2691Z" fill="var(--fill-0, white)"/>
<path id="Vector_17" d="M85.2434 89.4062C85.4623 89.394 85.9242 89.3272 86.0519 89.5217C84.3559 90.3423 83.1098 93.6491 81.189 92.7616C82.2953 91.8984 83.8696 89.4791 85.2373 89.4062H85.2434Z" fill="var(--fill-0, white)"/>
<path id="Vector_18" d="M26.457 93.8071C26.7731 93.7342 27.2594 93.8557 27.6119 93.8071C26.8156 94.4028 23.4481 98.4634 22.6335 97.3935C22.4755 97.1868 26.1956 93.8679 26.4509 93.8071H26.457Z" fill="var(--fill-0, white)"/>
<path id="Vector_19" d="M17.1993 94.9621C17.412 94.9499 17.8862 94.883 18.0077 95.0775C16.1537 95.8921 15.6006 98.9132 13.3758 98.0865C14.4335 97.3023 15.9532 95.0289 17.1932 94.9621H17.1993Z" fill="var(--fill-0, white)"/>
<path id="Vector_20" d="M11.6433 95.655C11.85 95.5942 13.0657 95.6125 13.1508 95.7705C11.467 96.5304 10.8045 99.0895 8.87146 98.6639C9.13284 98.1473 11.3698 95.7401 11.6494 95.655H11.6433Z" fill="var(--fill-0, white)"/>
<path id="Vector_21" d="M7.93537 96.1231C10.3425 95.424 6.361 99.29 5.38842 99.132C5.67412 98.5545 7.51594 96.2446 7.93537 96.1231Z" fill="var(--fill-0, white)"/>
<path id="Vector_22" d="M115.801 80.1484C116.074 82.276 114.421 82.507 112.676 83.0419L115.801 80.1484Z" fill="var(--fill-0, white)"/>
<path id="Vector_23" d="M116.263 75.9846C117.016 77.638 116.232 78.4525 114.64 78.9935L116.263 75.9846Z" fill="var(--fill-0, white)"/>
<path id="Vector_24" d="M4.00257 96.585C4.20925 96.5364 4.93868 96.5364 5.04202 96.7005C1.10307 101.235 2.38566 96.9498 4.00257 96.585Z" fill="var(--fill-0, white)"/>
<path id="Vector_25" d="M115.57 91.7222C116.816 91.6006 115.782 94.0077 114.415 93.3451C114.123 92.9561 115.472 91.7343 115.57 91.7222Z" fill="var(--fill-0, white)"/>
<path id="Vector_26" d="M116.494 70.1978C117.071 70.4591 116.876 73.6079 116.032 73.6686L116.494 70.1978Z" fill="var(--fill-0, white)"/>
<path id="Vector_27" d="M116.032 88.2513C116.147 88.2513 116.585 88.7497 116.263 88.9442L114.877 89.8682C114.585 89.4852 115.934 88.2452 116.032 88.2452V88.2513Z" fill="var(--fill-0, white)"/>
<path id="Vector_28" d="M116.263 85.0114C116.919 85.3882 115.557 86.3243 114.992 85.8198C114.962 85.4733 116.202 84.9749 116.263 85.0114Z" fill="var(--fill-0, #E6E1E1)"/>
<path id="Vector_29" d="M0.300675 97.047C1.10305 96.9437 0.859908 97.9223 0.069687 97.509C-0.161301 97.3874 0.252046 97.0531 0.300675 97.047Z" fill="var(--fill-0, white)"/>
<path id="Vector_30" d="M43.3494 24.1339C61.6643 23.751 80.0096 24.4926 98.3245 24.4804C97.6376 25.1247 96.5252 25.1612 95.6621 25.2889C91.6258 25.8846 86.149 26.0669 82.0034 26.2128C59.5976 27.0213 37.0459 25.3314 14.6462 26.6748V25.2889C24.2139 25.064 33.7817 24.3284 43.3494 24.1339Z" fill="var(--fill-0, #010202)"/>
<path id="Vector_31" d="M88.7204 0.0625747C90.4953 0.0382602 99.0176 -0.156255 100.063 0.293563C100.355 0.421214 100.476 0.79809 100.41 1.10202C99.9658 2.32382 81.9184 2.77364 79.4626 2.84051C65.2386 3.20522 50.4311 3.02286 36.1767 2.84051C28.5845 2.74325 20.9194 2.74325 13.3758 2.03205L13.9533 1.45458C38.8939 2.19617 63.8223 0.3969 88.7143 0.0686546L88.7204 0.0625747Z" fill="var(--fill-0, #010202)"/>
<path id="Vector_32" d="M92.6532 51.4513C93.8143 51.4513 99.1209 51.3844 99.826 51.6822C100.13 51.8099 100.343 52.3266 100.057 52.6062C99.2242 52.7946 98.3428 53.1472 97.5101 53.2992C90.7142 54.5696 77.6451 54.2657 70.1988 54.4541C51.2821 54.9465 32.256 54.6851 13.3758 53.8766L13.9533 53.2992C40.2008 54.4359 66.4726 51.3601 92.6532 51.4452V51.4513Z" fill="var(--fill-0, #010202)"/>
<path id="Vector_33" d="M89.8752 38.2546C93.2002 38.2485 96.4948 38.595 99.8259 38.4856C100.033 38.6132 99.99 38.9901 99.8259 39.1785C99.3518 39.7378 86.9575 40.4733 85.2433 40.5644C63.9621 41.7498 42.2188 41.3364 20.895 41.7194C19.6367 41.7437 15.0109 41.9686 14.1842 41.7194C13.4244 41.4884 13.6614 40.8805 14.1842 40.5644C39.3801 40.0721 64.6733 38.3154 89.8752 38.2485V38.2546Z" fill="var(--fill-0, #010202)"/>
<path id="Vector_34" d="M93.5772 11.6363C95.1698 11.612 97.3095 11.3688 98.7866 11.9828C88.9027 13.6483 78.6299 13.8732 68.5819 14.1832C51.7076 14.6999 32.8092 15.3138 16.0383 14.8762C15.1447 14.8519 14.3849 15.1193 13.8378 14.2987C13.7892 13.6544 15.7283 13.545 16.2693 13.4903C40.3224 10.9919 69.0013 12.0375 93.5772 11.6363Z" fill="var(--fill-0, #010202)"/>
<path id="Vector_35" d="M97.5161 64.1799C98.0571 64.1617 98.5981 64.1921 99.1391 64.1799C96.6043 65.3166 92.4769 65.9488 89.4193 66.2649C64.7523 68.7997 38.7966 65.9366 13.9654 66.9578L13.3879 66.3804C13.3393 65.7239 15.485 65.6266 16.0503 65.5719C33.1799 63.955 53.0813 65.7482 70.4419 65.5719C79.4869 65.4807 88.5501 64.4474 97.5221 64.186L97.5161 64.1799Z" fill="var(--fill-0, #010202)"/>
</g>
</svg>
