<?xml version="1.0" encoding="UTF-8"?>
<svg xmlns="http://www.w3.org/2000/svg" viewBox="0 0 203.84 206.39">
  <defs>
    <clipPath id="note-clip">
      <path d="M133.25,2.35c12.24-.14,20.93-.33,32.65-.14,10.9.18,21.8.49,32.65.71-.5,27.62-.38,50.17-.19,65.66.4,32.05,1.34,48.29.78,77.41-.38,19.74-1.26,35.84-1.94,46.29-32.77.06-66.77.79-101.92,2.33-31.61,1.39-62.23,3.36-91.8,5.8,2.59-30.8,4.18-64.27,4.11-100.07-.07-33.49-1.57-64.92-3.99-94l88.53-3.24c16.61-.42,30.59-.64,41.12-.76Z"/>
    </clipPath>
  </defs>

  <!-- Outer black border -->
  <path d="M135.08.23c12.74-.15,21.78-.34,33.99-.15,11.35.18,22.69.51,33.98.74-.52,28.75-.4,52.22-.2,68.35.42,33.36,1.39,50.26.81,80.57-.4,20.54-1.32,37.31-2.02,48.18-34.1.06-69.5.82-106.08,2.43-32.9,1.45-64.77,3.5-95.55,6.03,2.7-32.06,4.35-66.9,4.27-104.16C4.2,67.37,2.63,34.66.12,4.39L92.27,1.02c17.29-.44,31.84-.67,42.8-.79Z" fill="#010202"/>

  <!-- Inner white paper -->
  <path d="M133.25,2.35c12.24-.14,20.93-.33,32.65-.14,10.9.18,21.8.49,32.65.71-.5,27.62-.38,50.17-.19,65.66.4,32.05,1.34,48.29.78,77.41-.38,19.74-1.26,35.84-1.94,46.29-32.77.06-66.77.79-101.92,2.33-31.61,1.39-62.23,3.36-91.8,5.8,2.59-30.8,4.18-64.27,4.11-100.07-.07-33.49-1.57-64.92-3.99-94l88.53-3.24c16.61-.42,30.59-.64,41.12-.76Z" fill="white"/>

  <!-- Ruled lines angled to match paper perspective (right side ~4px higher than left) -->
  <g clip-path="url(#note-clip)">
    <!-- Line 1 -->
    <line x1="16" y1="35" x2="185" y2="31.5" stroke="#010202" stroke-width="2.2" stroke-linecap="round"/>
    <!-- Line 2 -->
    <line x1="16" y1="60" x2="185" y2="56" stroke="#010202" stroke-width="2.2" stroke-linecap="round"/>
    <!-- Line 3 -->
    <line x1="16" y1="85" x2="185" y2="81" stroke="#010202" stroke-width="2.2" stroke-linecap="round"/>
    <!-- Line 4 -->
    <line x1="16" y1="110" x2="185" y2="105.5" stroke="#010202" stroke-width="2.2" stroke-linecap="round"/>
    <!-- Line 5 -->
    <line x1="16" y1="135" x2="185" y2="130" stroke="#010202" stroke-width="2.2" stroke-linecap="round"/>
    <!-- Line 6 -->
    <line x1="16" y1="160" x2="185" y2="155" stroke="#010202" stroke-width="2.2" stroke-linecap="round"/>
  </g>
</svg>
