<?xml version="1.0" encoding="UTF-8"?>
<svg id="Layer_2" data-name="Layer 2" xmlns="http://www.w3.org/2000/svg" viewBox="0 0 37.77 39">
  <defs>
    <style>
      .cls-1 {
        fill: #292929;
      }

      .cls-2 {
        opacity: .64;
      }

      .cls-2, .cls-3 {
        fill: #fff;
      }

      .cls-4 {
        opacity: .52;
      }
    </style>
  </defs>
  <g id="Layer_1-2" data-name="Layer 1">
    <g>
      <g>
        <ellipse class="cls-1" cx="16.93" cy="22.57" rx="16.93" ry="16.44"/>
        <ellipse cx="23.05" cy="14.15" rx="14.72" ry="14.15"/>
        <path class="cls-4" d="M8.51,16.25c-.5,1.03-1.65,3.76-1.02,7.14.09.46,1.31,6.44,6.75,8.31,4.08,1.4,8.82-.08,11.74-3.74-.89.2-6.2,1.31-11.28-2.11-5.05-3.4-6.04-8.7-6.19-9.6Z"/>
      </g>
      <path class="cls-2" d="M10.54,21.99c-1.21-1.7-1.74-3.36-1.98-4.31-1.15-4.59.58-8.44,1.22-9.7-.47,1.1-2.11,5.31-.47,10.19,2.03,6.03,7.46,8.31,8.64,8.77,7.17,2.78,13.52-1.23,14.18-1.66-1.77,1.14-4.46,2.43-7.86,2.66-4.83.33-10.56-1.51-13.72-5.95Z"/>
      <g>
        <path class="cls-3" d="M24.04,7.61c1.49-.07,2.81-.33,4.01.41,2.27,1.4,3.9,5.02,2.34,7.72-2.25,3.74-5.56,4.22-10.25,1.54-5.38-2.73-1.85-8.61,3.22-9.52.02,0,.03-.02.05-.03.21-.04.43-.08.64-.13ZM22.61,8.64c-.49.12-1.58.74-2.03,1.06-3.22,2.01-2.81,6.15.91,7.65,4.69,2.54,9.19-.67,8.38-5.36-.48-1.6-1.78-3.29-3.3-3.63-.31-.07-1-.14-1.33-.09-.27.04-.3.03-.53.04-.17,0-.43.05-.62.08-.42.06-1.07.15-1.49.24Z"/>
        <path class="cls-3" d="M21.75,14.68c.37-.12.81.2,1.19.33,1.28.43,2.43.3,3.33-.52.16-.15.48-.59.65-.65.5-.16,1.02.25.8.67-.62,1.15-2.2,1.79-3.57,1.7-.61-.04-1.92-.36-2.46-.72-.37-.25-.3-.69.06-.81Z"/>
        <path class="cls-3" d="M25.73,11.45c.89-.31,1.09.9.21.95-.62.03-.73-.78-.21-.95Z"/>
        <path class="cls-3" d="M21.52,12.24c.04-.05.16-.14.23-.16.89-.32,1.12.9.21.95-.45.02-.69-.48-.44-.78Z"/>
      </g>
    </g>
  </g>
</svg>